<?xml version="1.0" encoding="utf-8"?>
<!-- Generator: Adobe Illustrator 16.0.3, SVG Export Plug-In . SVG Version: 6.00 Build 0)  -->
<!DOCTYPE svg PUBLIC "-//W3C//DTD SVG 1.1//EN" "http://www.w3.org/Graphics/SVG/1.1/DTD/svg11.dtd">
<svg version="1.1" xmlns="http://www.w3.org/2000/svg" xmlns:xlink="http://www.w3.org/1999/xlink" x="0px" y="0px" width="300px"
	 height="300px" viewBox="0 0 300 300" enable-background="new 0 0 300 300" xml:space="preserve">
<g id="Layer_3">
	<circle fill="#3498DB" cx="150" cy="150" r="146.785"/>
</g>
<g id="Layer_5" display="none">
	<g display="inline">
		<defs>
			<circle id="SVGID_1_" cx="150" cy="150" r="146.785"/>
		</defs>
		<clipPath id="SVGID_2_">
			<use xlink:href="#SVGID_1_"  overflow="visible"/>
		</clipPath>
		<path clip-path="url(#SVGID_2_)" fill="#FAD7A5" d="M102.211,210.943l16.782-8.391V300H96.846c-2.446,0-4.43-1.983-4.43-4.43
			v-68.778C92.417,220.079,96.21,213.945,102.211,210.943z"/>
		<path clip-path="url(#SVGID_2_)" fill="#FFCC33" d="M202.227,204.601l-34.509-15.337h-35.436l-34.509,15.337
			c-2.686,1.194-3.485,4.626-1.603,6.884l16.342,19.609c1.326,1.592,2.053,3.599,2.053,5.671v58.806c0,2.445,1.983,4.43,4.43,4.43
			h70.871l-4.43-66.441l18.395-22.074C205.712,209.227,204.913,205.795,202.227,204.601z"/>
		<path clip-path="url(#SVGID_2_)" fill="#E74C3C" d="M167.718,189.264h-35.436l-8.859,3.938v0.491
			c0,14.679,11.899,26.578,26.577,26.578c14.679,0,26.577-11.899,26.577-26.578v-0.491L167.718,189.264z"/>
		<path clip-path="url(#SVGID_2_)" fill="#FFAA50" d="M40.629,88.557l27.05,23.186c1.201,1.029,3.059,0.507,3.548-0.997
			c2.907-8.933,12.797-33.849,34.479-41.077l13.289-17.718c0,0-47.812-21.732-78.85,33.831
			C39.628,86.707,39.825,87.867,40.629,88.557z"/>
		<path clip-path="url(#SVGID_2_)" fill="#E74C3C" d="M118.994,51.951c0,0-10.3-4.662-24.431-4.129
			c-1.911,5.143-4.134,14.75-2.91,30.055c4.012-3.477,8.648-6.407,14.052-8.208L118.994,51.951z"/>
		<path clip-path="url(#SVGID_2_)" fill="#FFAA50" d="M259.371,88.557l-27.052,23.186c-1.2,1.029-3.057,0.507-3.547-0.997
			c-2.907-8.933-12.796-33.849-34.479-41.077l-13.288-17.718c0,0,47.81-21.732,78.85,33.831
			C260.373,86.707,260.175,87.867,259.371,88.557z"/>
		<path clip-path="url(#SVGID_2_)" fill="#E74C3C" d="M181.007,51.951c0,0,10.299-4.662,24.43-4.129
			c1.911,5.143,4.133,14.75,2.911,30.055c-4.014-3.477-8.649-6.407-14.054-8.208L181.007,51.951z"/>
		<path clip-path="url(#SVGID_2_)" fill="#F0C891" d="M150,211.411L150,211.411c-9.786,0-17.718-7.933-17.718-17.718v-31.006h35.436
			v31.006C167.718,203.479,159.784,211.411,150,211.411z"/>
		<path clip-path="url(#SVGID_2_)" fill="#FFE1B4" d="M203.154,109.534h-4.429V96.245h-97.448v13.289h-4.43
			c-4.892,0-8.859,3.966-8.859,8.859c0,4.893,3.967,8.859,8.859,8.859h4.43c0,26.91,21.814,48.723,48.724,48.723
			s48.725-21.814,48.725-48.723h4.429c4.893,0,8.858-3.966,8.858-8.859S208.046,109.534,203.154,109.534z"/>
		<g clip-path="url(#SVGID_2_)">
			<path fill="#64463C" d="M127.853,127.251c-2.448,0-4.43-1.984-4.43-4.43v-4.43c0-2.446,1.981-4.43,4.43-4.43
				c2.448,0,4.43,1.983,4.43,4.43v4.43C132.282,125.268,130.301,127.251,127.853,127.251z"/>
			<path fill="#64463C" d="M172.148,127.251c-2.448,0-4.43-1.984-4.43-4.43v-4.43c0-2.446,1.981-4.43,4.43-4.43
				c2.447,0,4.429,1.983,4.429,4.43v4.43C176.576,125.268,174.595,127.251,172.148,127.251z"/>
		</g>
		<path clip-path="url(#SVGID_2_)" fill="#D7AF7D" d="M150,153.828c-6.117,0-11.835-1.931-16.1-5.437
			c-1.89-1.553-2.163-4.345-0.61-6.236c1.543-1.886,4.347-2.165,6.233-0.607c5.294,4.348,15.658,4.348,20.952,0
			c1.888-1.557,4.689-1.278,6.233,0.607c1.553,1.891,1.281,4.683-0.609,6.236C161.835,151.897,156.116,153.828,150,153.828z"/>
		<path clip-path="url(#SVGID_2_)" fill="#FFAA50" d="M154.43,43.092h-8.859c-26.91,0-48.724,21.815-48.724,48.724v6.644
			c0,1.223,0.991,2.215,2.214,2.215H200.94c1.223,0,2.215-0.992,2.215-2.215v-6.644C203.154,64.907,181.339,43.092,154.43,43.092z"
			/>
		<path clip-path="url(#SVGID_2_)" fill="#FF913C" d="M220.87,255.609h-35.435l-3.942,39.425c-0.262,2.607,1.786,4.87,4.406,4.87
			h34.506c2.621,0,4.669-2.263,4.408-4.87L220.87,255.609z"/>
		<path clip-path="url(#SVGID_2_)" fill="#FFAA50" d="M227.906,203.49l-11.137,9.717l-0.528-0.203
			c-3.981-1.067-8.398-1.688-13.086-1.688c-4.768,0-9.263,0.636-13.294,1.737h-0.514l-10.945-9.562
			c-2.44-2.132-6.254-0.399-6.254,2.841v31.56c0,17.124,13.882,31.007,31.006,31.007s31.005-13.883,31.005-31.007v-31.56
			C234.158,203.092,230.345,201.359,227.906,203.49z"/>
		<g clip-path="url(#SVGID_2_)">
			<path fill="#553732" d="M189.865,242.32c-0.576,0-1.151-0.133-1.683-0.354c-0.532-0.224-1.021-0.532-1.463-0.931
				c-0.397-0.442-0.709-0.887-0.929-1.462c-0.222-0.531-0.355-1.107-0.355-1.683c0-0.578,0.134-1.151,0.355-1.685
				c0.221-0.576,0.531-1.019,0.929-1.459c0.441-0.4,0.93-0.711,1.463-0.933c0.795-0.354,1.683-0.441,2.521-0.265
				c0.312,0.044,0.576,0.132,0.844,0.265c0.264,0.089,0.531,0.222,0.753,0.399c0.264,0.132,0.488,0.354,0.666,0.532
				c0.44,0.44,0.753,0.884,0.973,1.459c0.222,0.532,0.355,1.106,0.355,1.685c0,0.576-0.134,1.151-0.355,1.683
				c-0.22,0.575-0.531,1.02-0.973,1.463c-0.177,0.177-0.402,0.397-0.666,0.529c-0.222,0.178-0.489,0.313-0.753,0.4
				c-0.268,0.132-0.532,0.221-0.844,0.266C190.441,242.276,190.129,242.32,189.865,242.32z"/>
			<path fill="#553732" d="M216.443,242.32c-0.269,0-0.576-0.044-0.888-0.088c-0.264-0.046-0.531-0.134-0.796-0.266
				c-0.268-0.089-0.532-0.224-0.8-0.4c-0.222-0.132-0.44-0.353-0.662-0.53c-0.801-0.841-1.284-1.993-1.284-3.145
				c0-0.578,0.134-1.151,0.354-1.685c0.221-0.576,0.531-1.019,0.93-1.459c1.64-1.64,4.607-1.64,6.289,0
				c0.797,0.841,1.284,1.992,1.284,3.144s-0.487,2.304-1.284,3.145C218.743,241.832,217.592,242.32,216.443,242.32z"/>
		</g>
		<path clip-path="url(#SVGID_2_)" fill="#FAEBC8" d="M209.797,246.751h-13.288c-3.669,0-6.644,2.975-6.644,6.645
			c0,3.669,2.975,6.643,6.644,6.643c3.67,0,6.645-2.974,6.645-6.643c0-0.782,0-0.782,0,0c0,3.669,2.974,6.643,6.644,6.643
			s6.646-2.974,6.646-6.643C216.443,249.726,213.467,246.751,209.797,246.751z"/>
		<circle clip-path="url(#SVGID_2_)" fill="#FF913C" cx="203.154" cy="246.751" r="4.43"/>
	</g>
</g>
<g id="Layer_7" display="none">
	<g display="inline">
		<path fill="#FFCC33" d="M150,277.323L150,277.323c-41.221,0-74.638-33.417-74.638-74.639V97.314
			c0-41.222,33.417-74.638,74.638-74.638l0,0c41.222,0,74.638,33.416,74.638,74.638v105.37
			C224.638,243.906,191.222,277.323,150,277.323z"/>
		<path fill="#F39C12" d="M110.486,175.933v-28.25c0-3.554,3.983-5.611,6.893-3.573c9.244,6.47,20.48,10.28,32.621,10.28
			c31.113,0,56.412-24.896,57.063-55.852c0.581-27.637-19.62-52.052-46.757-57.308c-3.089-0.599-6.125-0.913-9.104-0.979
			c-4.543-0.101-6.025-6.058-2.046-8.253c5.719-3.155,11.894-5.584,18.406-7.157c-5.641-1.363-11.5-2.164-17.562-2.164
			c-41.221,0-74.638,33.416-74.638,74.637v105.371c0,41.222,33.417,74.639,74.638,74.639c6.061,0,11.921-0.801,17.562-2.165
			c-32.731-7.908-57.076-37.312-57.076-72.474v-0.692c25.622-1.738,58.89-7.118,90.467-21.662c2.204-1.015,3.169-3.62,2.153-5.825
			c-1.013-2.198-3.628-3.172-5.823-2.149c-29.907,13.774-61.967,18.975-86.797,20.718v-8.275c8.621-0.561,18.104-1.49,27.981-3.019
			c40.676-6.298,69.54-19.574,86.171-39.492v-15.44C204.617,163.15,148.925,173.349,110.486,175.933z"/>
		<path fill="#FFE1B4" d="M198.295,84.143c-0.622,0-1.219,0.1-1.818,0.184C190.798,63.972,172.166,49.02,150,49.02
			c-22.167,0-40.798,14.952-46.478,35.307c-0.599-0.084-1.195-0.184-1.818-0.184c-7.275,0-13.171,5.897-13.171,13.172
			s5.896,13.171,13.171,13.171c0.623,0,1.219-0.1,1.818-0.183c5.68,20.354,24.311,35.306,46.478,35.306
			c22.166,0,40.798-14.951,46.478-35.306c0.6,0.083,1.195,0.183,1.817,0.183c7.274,0,13.171-5.896,13.171-13.171
			S205.57,84.143,198.295,84.143z"/>
		<g>
			<path fill="#D7AF7D" d="M148.902,62.19c-8.471,0-15.366-6.895-15.366-15.367c0-8.472,6.894-15.366,15.366-15.366
				c2.428,0,4.392,1.966,4.392,4.391c0,2.424-1.964,4.391-4.392,4.391c-3.631,0-6.585,2.954-6.585,6.585
				c0,3.632,2.954,6.586,6.585,6.586c2.428,0,4.392,1.966,4.392,4.391S151.329,62.19,148.902,62.19z"/>
			<path fill="#D7AF7D" d="M150,123.657c-6.063,0-11.73-1.915-15.958-5.39c-1.874-1.539-2.144-4.307-0.605-6.181
				c1.531-1.87,4.309-2.144,6.178-0.603c5.247,4.31,15.521,4.31,20.77,0c1.869-1.541,4.647-1.267,6.178,0.603
				c1.539,1.873,1.27,4.642-0.605,6.181C161.731,121.742,156.064,123.657,150,123.657z"/>
		</g>
		<g>
			<path fill="#64463C" d="M128.047,101.705c-2.426,0-4.39-1.966-4.39-4.391v-4.391c0-2.425,1.963-4.391,4.39-4.391
				c2.427,0,4.391,1.966,4.391,4.391v4.391C132.438,99.739,130.474,101.705,128.047,101.705z"/>
			<path fill="#64463C" d="M171.953,101.705c-2.427,0-4.392-1.966-4.392-4.391v-4.391c0-2.425,1.965-4.391,4.392-4.391
				s4.39,1.966,4.39,4.391v4.391C176.343,99.739,174.379,101.705,171.953,101.705z"/>
		</g>
	</g>
</g>
<g id="Layer_8" display="none">
	<g display="inline">
		<defs>
			<circle id="SVGID_3_" cx="150" cy="150" r="146.785"/>
		</defs>
		<clipPath id="SVGID_4_">
			<use xlink:href="#SVGID_3_"  overflow="visible"/>
		</clipPath>
		<g clip-path="url(#SVGID_4_)">
			<path fill="#B4E66E" d="M151.376,183.998l-41.806-11.402H71.519l-41.807,11.402c-6.208,1.693-10.514,7.332-10.514,13.767v93.742
				c0,2.626,2.13,4.757,4.756,4.757h137.937v-98.499C161.891,191.33,157.584,185.691,151.376,183.998z"/>
			<rect x="66.762" y="153.572" fill="#FAD098" width="47.563" height="38.05"/>
			<path fill="#FFE1B4" d="M133.352,101.25V72.712H47.737v28.539c-5.254,0-9.513,4.259-9.513,9.513c0,5.253,4.259,9.513,9.513,9.513
				c0,23.643,19.166,42.808,42.808,42.808c23.642,0,42.808-19.165,42.808-42.808c5.253,0,9.513-4.259,9.513-9.513
				C142.865,105.509,138.606,101.25,133.352,101.25z"/>
			<path fill="#D7AF7D" d="M90.544,144.059c-5.035,0-9.848-2.376-13.206-6.518c-1.658-2.041-1.342-5.035,0.698-6.69
				c2.048-1.652,5.04-1.336,6.688,0.699c3.14,3.865,8.5,3.865,11.64,0c1.654-2.035,4.646-2.351,6.689-0.699
				c2.04,1.656,2.354,4.649,0.696,6.69C100.392,141.683,95.579,144.059,90.544,144.059z"/>
			<g>
				<path fill="#64463C" d="M71.519,120.276c-2.629,0-4.757-2.13-4.757-4.756v-4.756c0-2.627,2.128-4.757,4.757-4.757
					c2.628,0,4.756,2.13,4.756,4.757v4.756C76.275,118.146,74.148,120.276,71.519,120.276z"/>
				<path fill="#64463C" d="M109.57,120.276c-2.629,0-4.756-2.13-4.756-4.756v-4.756c0-2.627,2.127-4.757,4.756-4.757
					s4.757,2.13,4.757,4.757v4.756C114.327,118.146,112.199,120.276,109.57,120.276z"/>
			</g>
			<path fill="#D59F63" d="M122.563,96.723c1.389,3.678,5.32,5.345,9.193,4.666c0.519-0.091,1.052-0.139,1.597-0.139
				c1.742,0,3.352,0.502,4.756,1.32V72.712c0-7.116-3.952-13.247-9.738-16.51c-1.081-6.809-6.929-12.029-14.043-12.029H76.276
				c-18.389,0-33.296,14.907-33.296,33.295v25.102c1.404-0.817,3.016-1.32,4.757-1.32c0.612,0,1.208,0.06,1.784,0.173
				c4.633,0.912,9.271-1.648,10.43-6.225l0,0l1.418-12.247c0.326-2.811,3.007-4.742,5.761-4.093
				c8.742,2.06,27.497,5.161,47.026,0.069c2.67-0.697,5.353,1.104,5.807,3.826l1.888,11.329
				C122.006,95,122.246,95.883,122.563,96.723z"/>
			<g>
				<path fill="#A0D755" d="M19.198,197.765v93.742c0,2.627,2.13,4.757,4.756,4.757h23.782V228.32c0-5.289-1.763-10.426-5.01-14.6
					l-19.819-25.484C20.601,190.795,19.198,194.138,19.198,197.765z"/>
				<path fill="#A0D755" d="M161.891,197.765v98.499h-28.539V228.32c0-5.289,1.763-10.426,5.01-14.6l19.82-25.484
					C160.489,190.795,161.891,194.138,161.891,197.765z"/>
			</g>
			<g>
				<path fill="#FFDC64" d="M76.322,239.187c-2.629,0-4.78-2.13-4.78-4.756c0-2.627,2.104-4.757,4.733-4.757h0.047
					c2.629,0,4.756,2.13,4.756,4.757C81.078,237.057,78.951,239.187,76.322,239.187z"/>
				<path fill="#FFDC64" d="M76.322,277.238c-2.629,0-4.78-2.13-4.78-4.757s2.104-4.756,4.733-4.756h0.047
					c2.629,0,4.756,2.129,4.756,4.756S78.951,277.238,76.322,277.238z"/>
				<path fill="#FFDC64" d="M76.322,258.212c-2.629,0-4.78-2.129-4.78-4.756s2.104-4.756,4.733-4.756h0.047
					c2.629,0,4.756,2.129,4.756,4.756S78.951,258.212,76.322,258.212z"/>
			</g>
			<rect x="85.79" y="191.622" fill="#A0D755" width="9.512" height="104.642"/>
			<path fill="#785546" d="M236.958,68.458c0.606-1.681,1.035-3.421,1.035-5.259c0-10.508-10.647-19.025-23.782-19.025
				c-13.134,0-23.781,8.518-23.781,19.025c0,1.837,0.429,3.578,1.035,5.259c-17.485,8.468-29.574,26.33-29.574,47.062l0,0
				c0,23.642,19.165,42.808,42.808,42.808h19.026c23.642,0,42.809-19.166,42.809-42.808l0,0
				C266.532,94.788,254.444,76.926,236.958,68.458z"/>
			<path fill="#E6AF78" d="M271.831,216.573l-32.614-13.046c-3.611-1.444-5.979-4.942-5.979-8.833v-17.341h-38.051v17.341
				c0,3.891-2.368,7.389-5.98,8.833l-32.614,13.046c-5.418,2.166-8.969,7.414-8.969,13.249V248.7c0,2.626,2.128,4.756,4.756,4.756
				l0,0v38.051c0,2.627,2.129,4.757,4.756,4.757h114.154c2.627,0,4.756-2.13,4.756-4.757v-38.051l0,0
				c2.627,0,4.757-2.13,4.757-4.756v-18.878C280.801,223.987,277.249,218.739,271.831,216.573z"/>
			<path fill="#FFDC64" d="M271.831,216.573l-27.03-10.813c-4.507,7.098-14.682,20.716-30.59,28.67
				c-15.907-7.954-26.083-21.572-30.589-28.67l-27.031,10.813c-5.417,2.166-8.969,7.414-8.969,13.249V248.7
				c0,2.626,2.129,4.756,4.756,4.756h19.025v42.808h85.616v-42.808h19.025c2.626,0,4.756-2.13,4.756-4.756v-18.878
				C280.801,223.987,277.249,218.739,271.831,216.573z"/>
			<path fill="#F0C087" d="M257.02,144.059c0-31.492-34.04-20.433-57.852-35.24c-2.168-1.348-5.055-0.766-6.465,1.363
				c-3.675,5.543-11.194,14.662-20.995,14.848c-5.362,0.102-9.817,4.078-9.817,9.44v0.075c0,5.254,4.26,9.513,9.513,9.513
				c0,3.27,0.367,6.454,1.062,9.514c4.326,19.063,21.373,33.294,41.745,33.294c20.374,0,37.421-14.23,41.747-33.294
				C256.653,150.512,257.02,147.329,257.02,144.059z"/>
			<path fill="#D29B6E" d="M214.211,167.84c-5.035,0-9.848-2.376-13.205-6.518c-1.658-2.041-1.342-5.035,0.697-6.689
				c2.048-1.654,5.04-1.338,6.688,0.698c3.14,3.864,8.5,3.864,11.641,0c1.648-2.036,4.645-2.353,6.688-0.698
				c2.039,1.655,2.354,4.648,0.697,6.689C224.058,165.464,219.246,167.84,214.211,167.84z"/>
			<g>
				<path fill="#64463C" d="M233.238,144.059c-2.629,0-4.757-2.13-4.757-4.757v-4.756c0-2.626,2.128-4.756,4.757-4.756
					s4.756,2.13,4.756,4.756v4.756C237.993,141.929,235.866,144.059,233.238,144.059z"/>
				<path fill="#64463C" d="M195.186,144.059c-2.629,0-4.756-2.13-4.756-4.757v-4.756c0-2.626,2.127-4.756,4.756-4.756
					s4.756,2.13,4.756,4.756v4.756C199.942,141.929,197.816,144.059,195.186,144.059z"/>
			</g>
			<g>
				<path fill="#FFC850" d="M171.404,247.884c0-2.523-1.002-4.942-2.786-6.728l-18.832-18.831c-1.368,2.209-2.164,4.781-2.164,7.497
					V248.7c0,2.626,2.129,4.756,4.756,4.756h19.025V247.884z"/>
				<path fill="#FFC850" d="M257.02,247.884c0-2.523,1.002-4.942,2.786-6.728l18.831-18.831c1.369,2.209,2.164,4.781,2.164,7.497
					V248.7c0,2.626-2.13,4.756-4.756,4.756H257.02V247.884z"/>
			</g>
			<g>
				<path fill="#C8FF82" d="M66.073,171.229l24.472,20.394l-15.338,11.503c-2.055,1.542-4.963,1.173-6.568-0.833l-13.973-17.467
					c-1.294-1.617-1.393-3.886-0.244-5.609l4.648-6.972C60.638,169.892,63.9,169.418,66.073,171.229z"/>
				<path fill="#C8FF82" d="M115.017,171.229l-24.473,20.394l15.338,11.503c2.055,1.542,4.963,1.173,6.568-0.833l13.974-17.467
					c1.293-1.617,1.392-3.886,0.243-5.609l-4.647-6.972C120.45,169.892,117.188,169.418,115.017,171.229z"/>
			</g>
		</g>
	</g>
</g>
<g id="Layer_9">
	<g>
		<defs>
			<circle id="SVGID_5_" cx="150" cy="150" r="146.785"/>
		</defs>
		<clipPath id="SVGID_6_">
			<use xlink:href="#SVGID_5_"  overflow="visible"/>
		</clipPath>
		<path clip-path="url(#SVGID_6_)" fill="#B48764" d="M183.188,297h23.708c2.618,0,4.74-2.122,4.74-4.742v-56.896h-28.448V297z"/>
		<path clip-path="url(#SVGID_6_)" fill="#B48764" d="M116.809,297H93.102c-2.619,0-4.742-2.122-4.742-4.742v-56.896h28.449V297z"/>
		<path clip-path="url(#SVGID_6_)" fill="#F39C12" d="M204.455,192.662l-35.491-14.197h-37.932l-35.492,14.197
			c-7.201,2.88-11.922,9.854-11.922,17.609v25.09c0,2.619,2.123,4.743,4.742,4.743h23.706V297h75.862v-56.896h23.707
			c2.618,0,4.742-2.124,4.742-4.743v-25.09C216.378,202.517,211.656,195.542,204.455,192.662z"/>
		<path clip-path="url(#SVGID_6_)" fill="#E74C3C" d="M131.032,178.465l-9.434,3.774c-0.011,0.324-0.049,0.642-0.049,0.968
			c0,15.712,12.737,28.448,28.449,28.448s28.449-12.736,28.449-28.448c0-0.326-0.039-0.644-0.05-0.968l-9.433-3.774H131.032z"/>
		<path clip-path="url(#SVGID_6_)" fill="#B48764" d="M149.998,202.173L149.998,202.173c-10.475,0-18.965-8.491-18.965-18.966
			v-33.189h37.932v33.189C168.964,193.682,160.473,202.173,149.998,202.173z"/>
		<path clip-path="url(#SVGID_6_)" fill="#C39772" d="M206.896,93.121h-4.742V64.672H97.844v28.449h-4.742
			c-5.238,0-9.483,4.245-9.483,9.482s4.246,9.483,9.483,9.483h4.742c0,28.805,23.351,52.155,52.154,52.155
			c28.805,0,52.156-23.35,52.156-52.155h4.742c5.236,0,9.482-4.246,9.482-9.483C216.378,97.366,212.132,93.121,206.896,93.121z"/>
		<g clip-path="url(#SVGID_6_)">
			<path fill="#553732" d="M112.067,69.414l-3.216,16.084c-0.886,4.433-4.778,7.624-9.298,7.624h-6.45V69.414H112.067"/>
			<path fill="#553732" d="M187.929,69.414l3.217,16.084c0.886,4.433,4.778,7.624,9.299,7.624h6.45V69.414H187.929"/>
			<path fill="#553732" d="M126.291,112.086c-2.62,0-4.742-2.124-4.742-4.742v-4.741c0-2.618,2.121-4.742,4.742-4.742
				s4.742,2.124,4.742,4.742v4.741C131.032,109.963,128.912,112.086,126.291,112.086z"/>
			<path fill="#553732" d="M173.704,112.086c-2.62,0-4.741-2.124-4.741-4.742v-4.741c0-2.618,2.12-4.742,4.741-4.742
				s4.742,2.124,4.742,4.742v4.741C178.447,109.963,176.325,112.086,173.704,112.086z"/>
		</g>
		<path clip-path="url(#SVGID_6_)" fill="#966D50" d="M149.998,140.535c-6.548,0-12.669-2.067-17.234-5.82
			c-2.023-1.663-2.315-4.651-0.653-6.675c1.654-2.019,4.653-2.317,6.672-0.65c5.667,4.654,16.762,4.654,22.429,0
			c2.02-1.666,5.02-1.368,6.673,0.65c1.662,2.024,1.371,5.013-0.653,6.675C162.667,138.467,156.545,140.535,149.998,140.535z"/>
		<path clip-path="url(#SVGID_6_)" fill="#E74C3C" d="M154.74,22h-9.482c-28.805,0-52.155,23.351-52.155,52.155l0,0h113.794l0,0
			C206.896,45.351,183.544,22,154.74,22z"/>
		<path clip-path="url(#SVGID_6_)" fill="#E74C3C" d="M154.74,22h-9.482c-25.562,0-46.787,18.402-51.252,42.672H55.171
			c-2.621,0-4.742,2.123-4.742,4.741c0,2.619,2.121,4.742,4.742,4.742h71.12c0-24.721,17.218-45.376,40.302-50.751
			C162.779,22.518,158.824,22,154.74,22z"/>
		<path clip-path="url(#SVGID_6_)" fill="#E74C3C" d="M108.643,221.885l-20.47-23.883c-2.859,3.36-4.554,7.666-4.554,12.27v25.09
			c0,2.619,2.123,4.743,4.742,4.743h23.706v-8.963C112.067,227.745,110.852,224.463,108.643,221.885z"/>
		<path clip-path="url(#SVGID_6_)" fill="#E74C3C" d="M191.354,221.885l20.471-23.883c2.859,3.36,4.554,7.666,4.554,12.27v25.09
			c0,2.619-2.124,4.743-4.742,4.743h-23.707v-8.963C187.929,227.745,189.144,224.463,191.354,221.885z"/>
	</g>
</g>
<g id="Layer_6" display="none">
	<g id="Layer_1_1_" display="inline">
		<path fill="#FFCC33" d="M216.665,138.465c-0.887-0.603-1.781-1.185-2.688-1.745c-2.975-1.839-3.169-6.028-0.395-8.156
			c5.254-4.032,9.582-10.792,10.59-18.039l1.631-37.651c-7.851-17.998-26.407-31.242-48.649-32.516
			c-30.471-1.747-56.33,19.639-57.753,47.764c-0.838,16.584,3.629,29,14.836,37.438c3.011,2.267,2.442,6.941-1.017,8.433
			c-5.025,2.167-9.911,4.557-14.834,7.157c-24.043,12.707-38.321,6.758-62.112-7.12c-30.257-17.651-31.906,68.592,10.493,102.771
			c38.898,31.358,110.756,29.856,145.494-0.157S246.184,158.604,216.665,138.465z"/>
		<g>
			<path fill="#FF9900" d="M223.098,110.525c29.669,0,39.297-13.885,42.354-24.235c1.657-5.614-2.378-11.308-8.218-11.709
				l-31.618-2.176l-4.598,10.53C217.101,91.909,217.88,102.24,223.098,110.525L223.098,110.525z"/>
			<ellipse fill="#FF9900" cx="131.271" cy="197.078" rx="40.981" ry="27.159"/>
		</g>
		<circle fill="#444242" cx="187.477" cy="77.726" r="8.031"/>
	</g>
</g>
<g id="Layer_1" display="none">
	<g display="inline">
		<defs>
			<circle id="SVGID_7_" cx="150" cy="150" r="146.785"/>
		</defs>
		<clipPath id="SVGID_8_">
			<use xlink:href="#SVGID_7_"  overflow="visible"/>
		</clipPath>
		<g clip-path="url(#SVGID_8_)">
			<path fill="#F0C087" d="M245.104,249.881h36.353v30.151c0,2.378-2.035,4.307-4.543,4.307h-31.81V249.881z"/>
			<path fill="#F0C087" d="M154.216,284.339h-31.81c-2.509,0-4.544-1.929-4.544-4.307v-30.151h36.354V284.339z"/>
			<path fill="#18BC9C" d="M269.96,193.509l-43.035-12.55h-9.089h-36.354h-9.089l-43.037,12.55
				c-9.533,2.782-16.038,11.133-16.038,20.587v35.785c0,2.377,2.034,4.305,4.544,4.305h31.809V300h31.811h36.354h31.81v-45.814
				h31.811c2.51,0,4.544-1.928,4.544-4.305v-35.785C286,204.642,279.495,196.291,269.96,193.509z"/>
			<g>
				<path fill="#7F8499" d="M113.319,214.096v35.785c0,2.377,2.034,4.305,4.544,4.305h31.809v-14.098c0-2.957-1.068-5.82-3.027-8.12
					l-27.458-32.225C115.531,203.603,113.319,208.646,113.319,214.096z"/>
			</g>
			<g>
				<path fill="#0F725F" d="M280.131,199.743l-27.457,32.225c-1.96,2.3-3.028,5.163-3.028,8.12v14.098h31.811
					c2.51,0,4.544-1.928,4.544-4.305v-35.785C286,208.646,283.788,203.603,280.131,199.743z"/>
			</g>
			<path fill="#E6AF78" d="M199.66,206.803L199.66,206.803c-15.059,0-27.267-11.57-27.267-25.844V159.42h54.529v21.539
				C226.925,195.232,214.719,206.803,199.66,206.803z"/>
			<path fill="#F0C087" d="M263.278,109.884c0-5.211-3.902-9.555-9.087-10.553V73.27H145.129v26.062
				c-5.186,0.998-9.089,5.342-9.089,10.553c0,5.281,4.016,9.654,9.307,10.572c2.218,26.621,25.659,47.579,54.313,47.579
				c28.65,0,52.095-20.958,54.31-47.579C259.262,119.538,263.278,115.163,263.278,109.884z"/>
			<g>
				<path fill="#64463C" d="M176.938,116.345c-2.514,0-4.544-1.929-4.544-4.308v-4.307c0-2.379,2.03-4.307,4.544-4.307
					c2.512,0,4.543,1.928,4.543,4.307v4.307C181.481,114.416,179.449,116.345,176.938,116.345z"/>
				<path fill="#64463C" d="M222.381,116.345c-2.513,0-4.545-1.929-4.545-4.308v-4.307c0-2.379,2.032-4.307,4.545-4.307
					c2.512,0,4.544,1.928,4.544,4.307v4.307C226.925,114.416,224.893,116.345,222.381,116.345z"/>
			</g>
			<path fill="#D29B6E" d="M199.66,146.496c-6.277,0-12.142-1.876-16.52-5.286c-1.938-1.511-2.218-4.225-0.625-6.063
				c1.589-1.831,4.46-2.105,6.396-0.591c5.432,4.228,16.064,4.228,21.496,0c1.939-1.514,4.805-1.239,6.395,0.591
				c1.592,1.837,1.313,4.552-0.627,6.063C211.802,144.62,205.934,146.496,199.66,146.496z"/>
			<path fill="#785546" d="M251.92,99.115c2.568,0,4.911,0.839,6.813,2.202V68.962c0-9.988-5.985-18.635-14.733-22.938
				c-2.492-6.695-9.157-11.522-17.074-11.522h-45.444c-22.586,0-40.896,17.357-40.896,38.768v28.047
				c1.902-1.363,4.246-2.202,6.816-2.202c1.236,0,2.425,0.193,3.534,0.548c2.369,0.755,4.949-0.194,5.88-2.396l5.249-12.44
				c0.73-1.733,2.525-2.823,4.488-2.698c10.17,0.65,42.074,1.825,64.888-6.911c2.483-0.951,5.261,0.336,5.998,2.777
				c1.519,5.037,3.922,13.01,5.537,18.374c0.707,2.341,3.265,3.913,5.722,3.201C249.714,99.275,250.793,99.115,251.92,99.115z"/>
			<path fill="#E6AF78" d="M165.868,245.571v-13.551c0-4.896-2.918-9.371-7.536-11.561l-39.458-18.7
				c-4.619-2.189-7.536-6.664-7.536-11.558V176.65H65.896v13.552c0,4.894-2.917,9.368-7.537,11.558l-39.458,18.702
				c-4.619,2.188-7.535,6.663-7.535,11.559v17.859c0,2.378,2.034,4.306,4.544,4.306v25.847c0,2.378,2.036,4.307,4.544,4.307h104.518
				L165.868,245.571z"/>
			<path fill="#785546" d="M115.317,57.825c0.37-1.273,0.566-2.589,0.566-3.939c0-10.705-12.208-19.383-27.266-19.383
				c-15.058,0-27.265,8.679-27.265,19.383c0,1.35,0.196,2.666,0.565,3.939c-19.196,9.247-32.375,28.096-32.375,49.905v4.307
				c0,21.411,18.311,38.768,40.898,38.768h36.354c22.588,0,40.897-17.357,40.897-38.768v-4.307
				C147.694,85.92,134.512,67.072,115.317,57.825z"/>
			<path fill="#F39C12" d="M150,300l15.868-54.429v-13.551c0-4.896-2.918-9.371-7.536-11.561l-31.184-14.78
				c-17.724,23.341-38.532,31.276-38.532,31.276s-20.806-7.936-38.53-31.276l-31.187,14.78c-4.619,2.189-7.535,6.664-7.535,11.561
				v17.857c0,2.38,2.034,4.307,4.544,4.307h22.721v30.153L150,300z"/>
			<path fill="#F0C087" d="M69.461,100.724c-2.021-0.87-4.393-0.316-5.656,1.414c-4.333,5.932-14.753,18.514-25.173,18.514
				c-5.021,0-9.088,3.857-9.088,8.615s4.068,8.615,9.088,8.615c0,29.428,28.3,52.59,60.51,46.364
				c22.948-4.436,39.528-24.275,39.46-46.476C138.517,108.733,104.544,115.803,69.461,100.724z"/>
			<path fill="#553732" d="M111.339,137.882c-2.512,0-4.545-1.929-4.545-4.309v-4.307c0-2.378,2.033-4.308,4.545-4.308
				c2.512,0,4.544,1.929,4.544,4.308v4.307C115.883,135.953,113.851,137.882,111.339,137.882z"/>
			<path fill="#B27010" d="M11.365,232.021v17.857c0,2.38,2.034,4.307,4.544,4.307h22.722v-5.044c0-2.286-0.958-4.479-2.663-6.093
				l-20.913-19.823C12.739,225.576,11.365,228.691,11.365,232.021z"/>
			<path fill="#D29B6E" d="M88.617,163.729c-6.275,0-12.14-1.879-16.517-5.289c-1.939-1.51-2.218-4.225-0.625-6.063
				c1.589-1.831,4.455-2.106,6.394-0.593c5.432,4.228,16.065,4.228,21.496,0c1.94-1.514,4.807-1.238,6.395,0.593
				c1.593,1.838,1.314,4.553-0.625,6.063C100.76,161.85,94.893,163.729,88.617,163.729z"/>
			<path fill="#553732" d="M65.896,137.882c-2.512,0-4.544-1.929-4.544-4.309v-4.307c0-2.378,2.032-4.308,4.544-4.308
				c2.512,0,4.544,1.929,4.544,4.308v4.307C70.44,135.953,68.408,137.882,65.896,137.882z"/>
			<g>
				<path fill="#B4F0FF" d="M96.088,285.432L96.088,285.432c-15.971-15.14-15.971-39.688,0-54.828l49.987-47.382
					c15.972-15.14,41.866-15.14,57.838,0l0,0c15.973,15.141,15.973,39.687,0,54.827l-49.986,47.383
					C137.954,300.569,112.059,300.569,96.088,285.432z"/>
				<ellipse fill="#F0C087" cx="174.992" cy="210.636" rx="22.721" ry="21.538"/>
				<path fill="#91E1F5" d="M178.883,261.775l8.527-8.086c-26.578-0.136-51.579-18.042-65.57-30.266l46.955-44.509
					c2.976-2.822,6.296-5.113,9.834-6.884c-11.643-0.978-23.646,2.744-32.555,11.19l-49.987,47.382
					c-15.971,15.141-15.971,39.688,0,54.828c12.996,12.317,32.559,14.61,48.003,6.881c-9.222-0.774-18.223-4.496-25.283-11.19
					c-14.81-14.038-15.861-36.154-3.205-51.368C129.156,241.646,152.528,258.539,178.883,261.775z"/>
				<g>
					<ellipse fill="#64463C" cx="168.567" cy="204.542" rx="4.545" ry="4.309"/>
					<ellipse fill="#64463C" cx="181.417" cy="216.727" rx="4.544" ry="4.309"/>
				</g>
			</g>
			<path fill="#E6AF78" d="M172.303,255.328c-3.963-6.975-11.646-11.325-20.006-11.325h-8.367c-9.492,0-17.97,6.577-18.872,15.535
				c-1.035,10.277,7.463,18.923,18.092,18.923h6.515c1.596,0,3.075,0.796,3.896,2.092l9.661,15.264
				c1.642,2.595,4.603,4.184,7.795,4.184h21.337c2.407,0,3.941-2.436,2.801-4.444L172.303,255.328z"/>
		</g>
	</g>
</g>
<g id="Layer_4" display="none">
	<g display="inline">
		<defs>
			<circle id="SVGID_9_" cx="150" cy="150" r="146.785"/>
		</defs>
		<clipPath id="SVGID_10_">
			<use xlink:href="#SVGID_9_"  overflow="visible"/>
		</clipPath>
		<path clip-path="url(#SVGID_10_)" fill="#64463C" d="M149.999,25.073L149.999,25.073L149.999,25.073L149.999,25.073
			L149.999,25.073c39.903,0,72.252,32.35,72.252,72.252l0,0c0,45.979,6.569,91.958,6.569,91.958s-32.843,19.704-78.82,26.272
			c-45.979-6.569-78.821-26.272-78.821-26.272s6.569-45.979,6.569-91.958l0,0C77.746,57.423,110.095,25.073,149.999,25.073
			L149.999,25.073L149.999,25.073L149.999,25.073L149.999,25.073z"/>
		<path clip-path="url(#SVGID_10_)" fill="#B48764" d="M229.57,236.876l-45.039-18.015c-4.988-1.995-8.258-6.826-8.258-12.196
			v-23.949h-52.547v23.946c0,5.373-3.271,10.203-8.259,12.199l-45.038,18.015c-7.481,2.993-12.387,10.239-12.387,18.296v26.07
			c0,3.626,2.94,6.567,6.569,6.567l0,0v52.547c0,3.629,2.94,6.57,6.568,6.57h157.642c3.627,0,6.569-2.941,6.569-6.57V287.81l0,0
			c3.627,0,6.568-2.94,6.568-6.567v-26.07C241.956,247.113,237.051,239.869,229.57,236.876z"/>
		<path clip-path="url(#SVGID_10_)" fill="#C39772" d="M209.115,136.736c0-43.488-47.008-28.216-79.889-48.664
			c-2.995-1.862-6.981-1.058-8.929,1.881c-5.074,7.656-15.457,20.248-28.993,20.505c-7.404,0.14-13.557,5.631-13.557,13.037v0.104
			c0,7.256,5.88,13.137,13.136,13.137c0,4.516,0.507,8.913,1.465,13.139c5.974,26.325,29.517,45.977,57.65,45.977
			c28.133,0,51.676-19.651,57.649-45.977C208.609,145.65,209.115,141.252,209.115,136.736z"/>
		<path clip-path="url(#SVGID_10_)" fill="#966D50" d="M149.999,169.578c-6.954,0-13.598-3.281-18.236-8.998
			c-2.291-2.82-1.855-6.955,0.961-9.241c2.829-2.284,6.959-1.848,9.237,0.966c4.336,5.336,11.738,5.336,16.074,0
			c2.276-2.813,6.413-3.25,9.236-0.966c2.816,2.286,3.253,6.421,0.963,9.241C163.599,166.297,156.952,169.578,149.999,169.578z"/>
		<g clip-path="url(#SVGID_10_)">
			<path fill="#553732" d="M176.273,136.736c-3.63,0-6.569-2.941-6.569-6.569v-6.568c0-3.627,2.938-6.569,6.569-6.569
				s6.568,2.942,6.568,6.569v6.568C182.841,133.797,179.904,136.736,176.273,136.736z"/>
			<path fill="#553732" d="M123.726,136.736c-3.631,0-6.569-2.941-6.569-6.569v-6.568c0-3.627,2.938-6.569,6.569-6.569
				c3.631,0,6.568,2.942,6.568,6.569v6.568C130.294,133.797,127.357,136.736,123.726,136.736z"/>
		</g>
		<path clip-path="url(#SVGID_10_)" fill="#00AAF0" d="M229.57,236.876l-28.019-11.206c-4.717,24.18-25.991,42.434-51.552,42.434
			c-25.559,0-46.836-18.255-51.552-42.434l-28.018,11.206c-7.481,2.993-12.387,10.237-12.387,18.296v26.07
			c0,3.626,2.94,6.567,6.569,6.567h26.273v59.116h118.23V287.81h26.273c3.629,0,6.569-2.941,6.569-6.567v-26.07
			C241.956,247.113,237.051,239.869,229.57,236.876z"/>
		<g clip-path="url(#SVGID_10_)">
			<path fill="#0096DC" d="M201.551,225.67c-4.717,24.18-25.991,42.434-51.552,42.434c-25.559,0-46.836-18.255-51.552-42.434
				l-12.332,4.933c6.81,29.012,32.792,50.64,63.884,50.64c31.091,0,57.074-21.628,63.885-50.64L201.551,225.67z"/>
			<path fill="#0096DC" d="M90.884,280.114c0-3.482-1.383-6.825-3.848-9.289l-26.005-26.006c-1.89,3.051-2.989,6.603-2.989,10.353
				v26.07c0,3.626,2.94,6.567,6.569,6.567h26.273V280.114L90.884,280.114z"/>
			<path fill="#0096DC" d="M209.115,280.114c0-3.482,1.385-6.825,3.848-9.289l26.006-26.006c1.89,3.051,2.988,6.603,2.988,10.353
				v26.07c0,3.626-2.94,6.567-6.568,6.567h-26.273V280.114L209.115,280.114z"/>
		</g>
	</g>
</g>
</svg>
