<?xml version="1.0" encoding="utf-8"?>
<!-- Generator: Adobe Illustrator 16.0.3, SVG Export Plug-In . SVG Version: 6.00 Build 0)  -->
<!DOCTYPE svg PUBLIC "-//W3C//DTD SVG 1.1//EN" "http://www.w3.org/Graphics/SVG/1.1/DTD/svg11.dtd">
<svg version="1.1" xmlns="http://www.w3.org/2000/svg" xmlns:xlink="http://www.w3.org/1999/xlink" x="0px" y="0px" width="300px"
	 height="300px" viewBox="0 0 300 300" enable-background="new 0 0 300 300" xml:space="preserve">
<g id="Layer_2">
	<circle fill="#3498DB" cx="150" cy="150" r="146.785"/>
</g>
<g id="Layer_1">
	<path fill="#FFCC33" d="M216.665,138.463c-0.886-0.603-1.781-1.185-2.687-1.745c-2.975-1.839-3.169-6.028-0.395-8.156
		c5.254-4.032,9.582-10.792,10.59-18.039l1.631-37.651c-7.851-17.998-26.407-31.242-48.649-32.516
		c-30.471-1.747-56.331,19.639-57.753,47.764c-0.838,16.584,3.629,29,14.836,37.438c3.01,2.267,2.442,6.941-1.017,8.433
		c-5.025,2.167-9.911,4.557-14.834,7.157c-24.043,12.708-38.321,6.758-62.112-7.119c-30.257-17.651-31.907,68.592,10.493,102.771
		c38.898,31.358,110.756,29.856,145.494-0.157C247,206.629,246.184,158.602,216.665,138.463z"/>
	<g>
		<path fill="#FF9900" d="M223.098,110.523c29.669,0,39.297-13.885,42.353-24.235c1.658-5.614-2.378-11.308-8.217-11.709
			l-31.619-2.176l-4.597,10.53C217.101,91.907,217.88,102.238,223.098,110.523L223.098,110.523z"/>
		<ellipse fill="#FF9900" cx="131.271" cy="197.076" rx="40.981" ry="27.159"/>
	</g>
	<circle fill="#444242" cx="187.477" cy="77.724" r="8.031"/>
</g>
</svg>
