<?xml version="1.0" encoding="utf-8"?>
<!-- Generator: Adobe Illustrator 16.0.3, SVG Export Plug-In . SVG Version: 6.00 Build 0)  -->
<!DOCTYPE svg PUBLIC "-//W3C//DTD SVG 1.1//EN" "http://www.w3.org/Graphics/SVG/1.1/DTD/svg11.dtd">
<svg version="1.1" xmlns="http://www.w3.org/2000/svg" xmlns:xlink="http://www.w3.org/1999/xlink" x="0px" y="0px" width="300px"
	 height="300px" viewBox="0 0 300 300" enable-background="new 0 0 300 300" xml:space="preserve">
<g id="Layer_3">
	<circle fill="#ECF0F1" cx="150" cy="150" r="146.785"/>
</g>
<g id="Layer_1" display="none">
	<g display="inline">
		<defs>
			<circle id="SVGID_1_" cx="150" cy="150" r="146.785"/>
		</defs>
		<clipPath id="SVGID_2_">
			<use xlink:href="#SVGID_1_"  overflow="visible"/>
		</clipPath>
		<g clip-path="url(#SVGID_2_)">
			<path fill="#F0C087" d="M245.104,249.881h36.353v30.151c0,2.378-2.035,4.307-4.543,4.307h-31.81V249.881z"/>
			<path fill="#F0C087" d="M154.216,284.339h-31.81c-2.509,0-4.544-1.929-4.544-4.307v-30.151h36.354V284.339z"/>
			<path fill="#18BC9C" d="M269.96,193.509l-43.035-12.55h-9.089h-36.354h-9.089l-43.037,12.55
				c-9.533,2.782-16.038,11.133-16.038,20.587v35.785c0,2.377,2.034,4.305,4.544,4.305h31.809V300h31.811h36.354h31.81v-45.814
				h31.811c2.51,0,4.544-1.928,4.544-4.305v-35.785C286,204.642,279.495,196.291,269.96,193.509z"/>
			<g>
				<path fill="#7F8499" d="M113.319,214.096v35.785c0,2.377,2.034,4.305,4.544,4.305h31.809v-14.098c0-2.957-1.068-5.82-3.027-8.12
					l-27.458-32.225C115.531,203.603,113.319,208.646,113.319,214.096z"/>
			</g>
			<g>
				<path fill="#0F725F" d="M280.131,199.743l-27.457,32.225c-1.96,2.3-3.028,5.163-3.028,8.12v14.098h31.811
					c2.51,0,4.544-1.928,4.544-4.305v-35.785C286,208.646,283.788,203.603,280.131,199.743z"/>
			</g>
			<path fill="#E6AF78" d="M199.66,206.803L199.66,206.803c-15.059,0-27.267-11.57-27.267-25.844V159.42h54.529v21.539
				C226.925,195.232,214.719,206.803,199.66,206.803z"/>
			<path fill="#F0C087" d="M263.278,109.884c0-5.211-3.902-9.555-9.087-10.553V73.27H145.129v26.062
				c-5.186,0.998-9.089,5.342-9.089,10.553c0,5.281,4.016,9.654,9.307,10.572c2.218,26.621,25.659,47.579,54.313,47.579
				c28.65,0,52.095-20.958,54.31-47.579C259.262,119.538,263.278,115.163,263.278,109.884z"/>
			<g>
				<path fill="#64463C" d="M176.938,116.345c-2.514,0-4.544-1.929-4.544-4.308v-4.307c0-2.379,2.03-4.307,4.544-4.307
					c2.512,0,4.543,1.928,4.543,4.307v4.307C181.481,114.416,179.449,116.345,176.938,116.345z"/>
				<path fill="#64463C" d="M222.381,116.345c-2.513,0-4.545-1.929-4.545-4.308v-4.307c0-2.379,2.032-4.307,4.545-4.307
					c2.512,0,4.544,1.928,4.544,4.307v4.307C226.925,114.416,224.893,116.345,222.381,116.345z"/>
			</g>
			<path fill="#D29B6E" d="M199.66,146.496c-6.277,0-12.142-1.876-16.52-5.286c-1.938-1.511-2.218-4.225-0.625-6.063
				c1.589-1.831,4.46-2.105,6.396-0.591c5.432,4.228,16.064,4.228,21.496,0c1.939-1.514,4.805-1.239,6.395,0.591
				c1.592,1.837,1.313,4.552-0.627,6.063C211.802,144.62,205.934,146.496,199.66,146.496z"/>
			<path fill="#785546" d="M251.92,99.115c2.568,0,4.911,0.839,6.813,2.202V68.962c0-9.988-5.985-18.635-14.733-22.938
				c-2.492-6.695-9.157-11.522-17.074-11.522h-45.444c-22.586,0-40.896,17.357-40.896,38.768v28.047
				c1.902-1.363,4.246-2.202,6.816-2.202c1.236,0,2.425,0.193,3.534,0.548c2.369,0.755,4.949-0.194,5.88-2.396l5.249-12.44
				c0.73-1.733,2.525-2.823,4.488-2.698c10.17,0.65,42.074,1.825,64.888-6.911c2.483-0.951,5.261,0.336,5.998,2.777
				c1.519,5.037,3.922,13.01,5.537,18.374c0.707,2.341,3.265,3.913,5.722,3.201C249.714,99.275,250.793,99.115,251.92,99.115z"/>
			<path fill="#E6AF78" d="M165.868,245.571v-13.551c0-4.896-2.918-9.371-7.536-11.561l-39.458-18.7
				c-4.619-2.189-7.536-6.664-7.536-11.558V176.65H65.896v13.552c0,4.894-2.917,9.368-7.537,11.558l-39.458,18.702
				c-4.619,2.188-7.535,6.663-7.535,11.559v17.859c0,2.378,2.034,4.306,4.544,4.306v25.847c0,2.378,2.036,4.307,4.544,4.307h104.518
				L165.868,245.571z"/>
			<path fill="#785546" d="M115.317,57.825c0.37-1.273,0.566-2.589,0.566-3.939c0-10.705-12.208-19.383-27.266-19.383
				c-15.058,0-27.265,8.679-27.265,19.383c0,1.35,0.196,2.666,0.565,3.939c-19.196,9.247-32.375,28.096-32.375,49.905v4.307
				c0,21.411,18.311,38.768,40.898,38.768h36.354c22.588,0,40.897-17.357,40.897-38.768v-4.307
				C147.694,85.92,134.512,67.072,115.317,57.825z"/>
			<path fill="#F39C12" d="M150,300l15.868-54.429v-13.551c0-4.896-2.918-9.371-7.536-11.561l-31.184-14.78
				c-17.724,23.341-38.532,31.276-38.532,31.276s-20.806-7.936-38.53-31.276l-31.187,14.78c-4.619,2.189-7.535,6.664-7.535,11.561
				v17.857c0,2.38,2.034,4.307,4.544,4.307h22.721v30.153L150,300z"/>
			<path fill="#F0C087" d="M69.461,100.724c-2.021-0.87-4.393-0.316-5.656,1.414c-4.333,5.932-14.753,18.514-25.173,18.514
				c-5.021,0-9.088,3.857-9.088,8.615s4.068,8.615,9.088,8.615c0,29.428,28.3,52.59,60.51,46.364
				c22.948-4.436,39.528-24.275,39.46-46.476C138.517,108.733,104.544,115.803,69.461,100.724z"/>
			<path fill="#553732" d="M111.339,137.882c-2.512,0-4.545-1.929-4.545-4.309v-4.307c0-2.378,2.033-4.308,4.545-4.308
				c2.512,0,4.544,1.929,4.544,4.308v4.307C115.883,135.953,113.851,137.882,111.339,137.882z"/>
			<path fill="#B27010" d="M11.365,232.021v17.857c0,2.38,2.034,4.307,4.544,4.307h22.722v-5.044c0-2.286-0.958-4.479-2.663-6.093
				l-20.913-19.823C12.739,225.576,11.365,228.691,11.365,232.021z"/>
			<path fill="#D29B6E" d="M88.617,163.729c-6.275,0-12.14-1.879-16.517-5.289c-1.939-1.51-2.218-4.225-0.625-6.063
				c1.589-1.831,4.455-2.106,6.394-0.593c5.432,4.228,16.065,4.228,21.496,0c1.94-1.514,4.807-1.238,6.395,0.593
				c1.593,1.838,1.314,4.553-0.625,6.063C100.76,161.85,94.893,163.729,88.617,163.729z"/>
			<path fill="#553732" d="M65.896,137.882c-2.512,0-4.544-1.929-4.544-4.309v-4.307c0-2.378,2.032-4.308,4.544-4.308
				c2.512,0,4.544,1.929,4.544,4.308v4.307C70.44,135.953,68.408,137.882,65.896,137.882z"/>
			<g>
				<path fill="#B4F0FF" d="M96.088,285.432L96.088,285.432c-15.971-15.14-15.971-39.688,0-54.828l49.987-47.382
					c15.972-15.14,41.866-15.14,57.838,0l0,0c15.973,15.141,15.973,39.687,0,54.827l-49.986,47.383
					C137.954,300.569,112.059,300.569,96.088,285.432z"/>
				<ellipse fill="#F0C087" cx="174.992" cy="210.636" rx="22.721" ry="21.538"/>
				<path fill="#91E1F5" d="M178.883,261.775l8.527-8.086c-26.578-0.136-51.579-18.042-65.57-30.266l46.955-44.509
					c2.976-2.822,6.296-5.113,9.834-6.884c-11.643-0.978-23.646,2.744-32.555,11.19l-49.987,47.382
					c-15.971,15.141-15.971,39.688,0,54.828c12.996,12.317,32.559,14.61,48.003,6.881c-9.222-0.774-18.223-4.496-25.283-11.19
					c-14.81-14.038-15.861-36.154-3.205-51.368C129.156,241.646,152.528,258.539,178.883,261.775z"/>
				<g>
					<ellipse fill="#64463C" cx="168.567" cy="204.542" rx="4.545" ry="4.309"/>
					<ellipse fill="#64463C" cx="181.417" cy="216.727" rx="4.544" ry="4.309"/>
				</g>
			</g>
			<path fill="#E6AF78" d="M172.303,255.328c-3.963-6.975-11.646-11.325-20.006-11.325h-8.367c-9.492,0-17.97,6.577-18.872,15.535
				c-1.035,10.277,7.463,18.923,18.092,18.923h6.515c1.596,0,3.075,0.796,3.896,2.092l9.661,15.264
				c1.642,2.595,4.603,4.184,7.795,4.184h21.337c2.407,0,3.941-2.436,2.801-4.444L172.303,255.328z"/>
		</g>
	</g>
</g>
<g id="Layer_4">
	<g>
		<defs>
			<circle id="SVGID_3_" cx="150" cy="150" r="146.785"/>
		</defs>
		<clipPath id="SVGID_4_">
			<use xlink:href="#SVGID_3_"  overflow="visible"/>
		</clipPath>
		<path clip-path="url(#SVGID_4_)" fill="#64463C" d="M149.999,25.073L149.999,25.073L149.999,25.073L149.999,25.073L149.999,25.073
			c39.903,0,72.252,32.35,72.252,72.252l0,0c0,45.979,6.569,91.958,6.569,91.958s-32.843,19.704-78.82,26.272
			c-45.979-6.569-78.821-26.272-78.821-26.272s6.569-45.979,6.569-91.958l0,0C77.746,57.423,110.095,25.073,149.999,25.073
			L149.999,25.073L149.999,25.073L149.999,25.073L149.999,25.073z"/>
		<path clip-path="url(#SVGID_4_)" fill="#B48764" d="M229.57,236.876l-45.039-18.015c-4.988-1.995-8.258-6.826-8.258-12.196
			v-23.949h-52.547v23.946c0,5.373-3.271,10.203-8.259,12.199l-45.038,18.015c-7.481,2.993-12.387,10.239-12.387,18.296v26.07
			c0,3.626,2.94,6.567,6.569,6.567l0,0v52.547c0,3.629,2.94,6.57,6.568,6.57h157.642c3.627,0,6.569-2.941,6.569-6.57V287.81l0,0
			c3.627,0,6.568-2.94,6.568-6.567v-26.07C241.956,247.113,237.051,239.869,229.57,236.876z"/>
		<path clip-path="url(#SVGID_4_)" fill="#C39772" d="M209.115,136.736c0-43.488-47.008-28.216-79.889-48.664
			c-2.995-1.862-6.981-1.058-8.929,1.881c-5.074,7.656-15.457,20.248-28.993,20.505c-7.404,0.14-13.557,5.631-13.557,13.037v0.104
			c0,7.256,5.88,13.137,13.136,13.137c0,4.516,0.507,8.913,1.465,13.139c5.974,26.325,29.517,45.977,57.65,45.977
			c28.133,0,51.676-19.651,57.649-45.977C208.609,145.65,209.115,141.252,209.115,136.736z"/>
		<path clip-path="url(#SVGID_4_)" fill="#966D50" d="M149.999,169.578c-6.954,0-13.598-3.281-18.236-8.998
			c-2.291-2.82-1.855-6.955,0.961-9.241c2.829-2.284,6.959-1.848,9.237,0.966c4.336,5.336,11.738,5.336,16.074,0
			c2.276-2.813,6.413-3.25,9.236-0.966c2.816,2.286,3.253,6.421,0.963,9.241C163.599,166.297,156.952,169.578,149.999,169.578z"/>
		<g clip-path="url(#SVGID_4_)">
			<path fill="#553732" d="M176.273,136.736c-3.63,0-6.569-2.941-6.569-6.569v-6.568c0-3.627,2.938-6.569,6.569-6.569
				s6.568,2.942,6.568,6.569v6.568C182.841,133.797,179.904,136.736,176.273,136.736z"/>
			<path fill="#553732" d="M123.726,136.736c-3.631,0-6.569-2.941-6.569-6.569v-6.568c0-3.627,2.938-6.569,6.569-6.569
				c3.631,0,6.568,2.942,6.568,6.569v6.568C130.294,133.797,127.357,136.736,123.726,136.736z"/>
		</g>
		<path clip-path="url(#SVGID_4_)" fill="#00AAF0" d="M229.57,236.876l-28.019-11.206c-4.717,24.18-25.991,42.434-51.552,42.434
			c-25.559,0-46.836-18.255-51.552-42.434l-28.018,11.206c-7.481,2.993-12.387,10.237-12.387,18.296v26.07
			c0,3.626,2.94,6.567,6.569,6.567h26.273v59.116h118.23V287.81h26.273c3.629,0,6.569-2.941,6.569-6.567v-26.07
			C241.956,247.113,237.051,239.869,229.57,236.876z"/>
		<g clip-path="url(#SVGID_4_)">
			<path fill="#0096DC" d="M201.551,225.67c-4.717,24.18-25.991,42.434-51.552,42.434c-25.559,0-46.836-18.255-51.552-42.434
				l-12.332,4.933c6.81,29.012,32.792,50.64,63.884,50.64c31.091,0,57.074-21.628,63.885-50.64L201.551,225.67z"/>
			<path fill="#0096DC" d="M90.884,280.114c0-3.482-1.383-6.825-3.848-9.289l-26.005-26.006c-1.89,3.051-2.989,6.603-2.989,10.353
				v26.07c0,3.626,2.94,6.567,6.569,6.567h26.273V280.114L90.884,280.114z"/>
			<path fill="#0096DC" d="M209.115,280.114c0-3.482,1.385-6.825,3.848-9.289l26.006-26.006c1.89,3.051,2.988,6.603,2.988,10.353
				v26.07c0,3.626-2.94,6.567-6.568,6.567h-26.273V280.114L209.115,280.114z"/>
		</g>
	</g>
</g>
</svg>
